<?xml version="1.0" encoding="UTF-8" standalone="no"?>
<!-- Created with Inkscape (http://www.inkscape.org/) -->

<svg
   width="210mm"
   height="297mm"
   viewBox="0 0 210 297"
   version="1.1"
   id="svg1"
   xml:space="preserve"
   inkscape:version="1.3.2 (091e20e, 2023-11-25, custom)"
   sodipodi:docname="UrlScope_logo.svg"
   inkscape:export-filename="UrlScope_logo.png"
   inkscape:export-xdpi="150"
   inkscape:export-ydpi="150"
   xmlns:inkscape="http://www.inkscape.org/namespaces/inkscape"
   xmlns:sodipodi="http://sodipodi.sourceforge.net/DTD/sodipodi-0.dtd"
   xmlns="http://www.w3.org/2000/svg"
   xmlns:svg="http://www.w3.org/2000/svg"><sodipodi:namedview
     id="namedview1"
     pagecolor="#ffffff"
     bordercolor="#000000"
     borderopacity="0.25"
     inkscape:showpageshadow="2"
     inkscape:pageopacity="0.0"
     inkscape:pagecheckerboard="0"
     inkscape:deskcolor="#d1d1d1"
     inkscape:document-units="mm"
     inkscape:zoom="4.4901281"
     inkscape:cx="266.91889"
     inkscape:cy="475.3762"
     inkscape:window-width="1920"
     inkscape:window-height="1177"
     inkscape:window-x="1912"
     inkscape:window-y="-8"
     inkscape:window-maximized="1"
     inkscape:current-layer="layer1" /><defs
     id="defs1" /><g
     inkscape:label="Ebene 1"
     inkscape:groupmode="layer"
     id="layer1"><rect
       style="fill:#ffffff;stroke:#ffffff;stroke-width:0.264583;stroke-dasharray:none;stroke-opacity:1;fill-opacity:1"
       id="rect4"
       width="200"
       height="200"
       x="5.0000005"
       y="14.333333" /><g
       id="g1"
       transform="matrix(4.9214858,0,0,4.9214858,-18.854856,-620.08466)"><path
         d="M 35.943414,166.36642 H 15.764406 v -0.30092 c 0,-1.05445 0.857886,-1.91241 1.912304,-1.91241 h 16.354259 c 1.054489,0 1.912445,0.85796 1.912445,1.91241 z m -10.089028,-4.68277 c 1.231442,0 2.420445,-0.18451 3.54168,-0.526 v 2.07822 h -7.084559 v -2.08245 c 1.129984,0.34467 2.320927,0.53023 3.542879,0.53023 z M 15.47474,153.87596 h 2.364001 c 1.602706,2.94253 4.648203,4.75827 8.015645,4.75827 5.033296,0 9.12806,-4.09504 9.12806,-9.12813 0,-2.12231 -0.729298,-4.14761 -2.062834,-5.77603 0.654545,-0.33479 1.176162,-0.89359 1.46223,-1.57551 1.766889,2.04329 2.731384,4.62386 2.731384,7.35154 0,6.2089 -5.050653,11.26032 -11.25884,11.26032 -4.543075,0 -8.634382,-2.7432 -10.379646,-6.89046 z m 13.824241,-12.92508 c 0,-1.21496 0.988555,-2.20345 2.203628,-2.20345 1.215073,0 2.203663,0.98849 2.203663,2.20345 0,1.21532 -0.98859,2.20381 -2.203663,2.20381 -1.215073,0 -2.203628,-0.98849 -2.203628,-2.20381 z m -3.839494,5.23629 -0.421288,-0.42157 c -0.0013,-0.001 -0.0022,-0.003 -0.0035,-0.004 l -2.618353,-2.61831 c -0.0012,-0.001 -0.0026,-0.002 -0.0038,-0.003 l -0.421711,-0.42192 9.445067,-9.44528 0.972785,0.97296 c 4.94e-4,3.6e-4 8.11e-4,0.001 0.0013,0.001 l 1.520296,1.52047 c 5.3e-4,7e-4 0.0012,0.001 0.0017,0.001 l 0.972433,0.97261 -1.636926,1.63724 c -0.502356,-0.34607 -1.110263,-0.54892 -1.764948,-0.54892 -1.720816,0 -3.120851,1.39982 -3.120851,3.12067 0,0.65476 0.202989,1.2626 0.548852,1.76495 z m -3.367443,1.86831 -1.96963,-1.96956 1.969277,-1.96956 1.969736,1.96991 z m 12.162516,-15.004 0.87182,0.87171 -0.871644,0.87172 -0.871714,-0.87172 z m -0.223591,30.18439 h -3.71768 v -2.39783 c 4.514641,-1.78294 7.717159,-6.19055 7.717159,-11.33194 0,-3.17641 -1.209675,-6.16797 -3.409599,-8.44868 0.0011,-0.0353 0.0028,-0.0709 0.0028,-0.10654 0,-0.73554 -0.256752,-1.41252 -0.684354,-1.94663 l 1.938127,-1.93816 c 0.08608,-0.0861 0.134409,-0.20249 0.134409,-0.3242 0,-0.12171 -0.04833,-0.23813 -0.134409,-0.3242 l -0.97402,-0.97438 1.195565,-1.19591 c 0.179211,-0.17886 0.179211,-0.4692 0,-0.64841 l -1.520121,-1.52047 c -0.178964,-0.17886 -0.469618,-0.17886 -0.648547,0 l -1.195917,1.19591 -0.974267,-0.97402 c -0.179141,-0.17921 -0.469583,-0.17921 -0.648512,0 L 21.017941,142.3941 c -0.179141,0.17921 -0.179141,0.46955 0,0.64876 l 0.425168,0.42509 -2.293586,2.29341 c -0.179141,0.17922 -0.179141,0.46955 0,0.64876 l 2.618283,2.61832 c 0.08597,0.0861 0.202636,0.13441 0.324238,0.13441 0.121603,0 0.238266,-0.0483 0.324274,-0.13441 l 2.293692,-2.29376 0.425203,0.4251 c 0.08947,0.0896 0.20694,0.1344 0.324274,0.1344 0.117334,0 0.234809,-0.0448 0.324273,-0.1344 l 3.77222,-3.77191 c 0.534141,0.42757 1.210805,0.68404 1.946629,0.68404 0.160514,0 0.318206,-0.0123 0.472299,-0.0356 1.348812,1.50777 2.090421,3.43959 2.090421,5.46982 0,4.52756 -3.68339,8.21091 -8.210943,8.21091 -2.860042,0 -5.461074,-1.45697 -6.956182,-3.84775 h 1.508408 c 0.253259,0 0.458611,-0.20532 0.458611,-0.45861 0,-0.25329 -0.205352,-0.45861 -0.458611,-0.45861 h -7.48161 c -0.253259,0 -0.458611,0.20532 -0.458611,0.45861 0,0.25329 0.205352,0.45861 0.458611,0.45861 h 1.560972 c 1.242378,3.23921 3.788342,5.73229 6.908311,6.96384 v 2.40277 H 17.67671 c -1.560161,0 -2.829562,1.2693 -2.829562,2.82963 v 0.75953 c 0,0.2533 0.205388,0.45861 0.458647,0.45861 h 21.09623 c 0.253295,0 0.458612,-0.20531 0.458612,-0.45861 v -0.75953 c 0,-1.56033 -1.269648,-2.82963 -2.829668,-2.82963"
         style="fill:#29333f;fill-opacity:1;fill-rule:nonzero;stroke:none;stroke-width:0.00352778"
         id="path14" /></g><g
       id="g4"
       transform="matrix(0.7553439,0,0,0.7553439,27.039147,17.737785)"><text
         xml:space="preserve"
         style="font-style:normal;font-variant:normal;font-weight:normal;font-stretch:normal;font-size:20.596px;font-family:Consolas;-inkscape-font-specification:Consolas;fill:#000000;stroke-width:1.71633"
         x="8.6714258"
         y="145.01944"
         id="text1"><tspan
           sodipodi:role="line"
           id="tspan1"
           style="stroke-width:1.71633"
           x="8.6714258"
           y="145.01944"><tspan
   style="font-style:normal;font-variant:normal;font-weight:bold;font-stretch:normal;font-family:Consolas;-inkscape-font-specification:'Consolas Bold'"
   id="tspan2">example</tspan>.net</tspan></text><path
         style="fill:#000000;stroke:#000000;stroke-width:1.49546;stroke-dasharray:none;stroke-opacity:1"
         d="M 59.774633,148 H 132.33333"
         id="path3" /><path
         style="fill:#000000;stroke:#000000;stroke-width:1.48924;stroke-dasharray:none;stroke-opacity:1"
         d="M 10.333333,148 H 53.375904"
         id="path4" /></g></g></svg>
